<?xml version="1.0" standalone="no"?>
<!DOCTYPE svg PUBLIC "-//W3C//DTD SVG 20010904//EN"
 "http://www.w3.org/TR/2001/REC-SVG-20010904/DTD/svg10.dtd">
<svg version="1.0" xmlns="http://www.w3.org/2000/svg"
 width="300.000000pt" height="300.000000pt" viewBox="0 0 300.000000 300.000000"
 preserveAspectRatio="xMidYMid meet">
<metadata>
Created by potrace 1.10, written by Peter Selinger 2001-2011
</metadata>
<g transform="translate(0.000000,300.000000) scale(0.100000,-0.100000)"
fill="#000000" stroke="none">
<path d="M1311 2724 c-103 -17 -266 -71 -347 -114 -80 -43 -184 -111 -184
-120 0 -9 351 -202 357 -197 4 4 -150 90 -283 159 l-64 33 32 27 c51 42 238
134 330 162 246 75 476 73 732 -5 l98 -30 -7 -277 c-4 -152 -10 -338 -14 -413
l-6 -136 -220 118 c-173 92 -220 122 -220 137 0 31 -11 34 -13 4 -2 -25 11
-34 229 -150 127 -68 232 -122 234 -120 7 7 28 815 22 831 -8 21 -172 73 -289
92 -113 18 -274 18 -387 -1z"/>
<path d="M2066 2588 c-4 -13 -27 -661 -26 -750 0 -41 -3 -48 -20 -48 -19 0
-20 -7 -20 -265 0 -181 3 -265 11 -265 6 0 72 40 147 88 75 49 228 146 339
218 111 71 200 131 198 133 -3 2 -78 -44 -167 -101 -328 -212 -510 -328 -514
-328 -2 0 -4 115 -4 255 0 243 1 255 19 255 18 0 19 13 26 213 4 116 10 299
14 405 l6 194 91 -60 c156 -102 298 -253 386 -410 17 -29 32 -51 35 -48 6 6
-67 125 -120 193 -66 86 -149 167 -240 234 -101 75 -156 105 -161 87z"/>
<path d="M654 2383 c-217 -226 -359 -547 -352 -797 1 -41 2 -48 5 -21 25 322
130 570 332 787 l72 76 122 -67 c67 -37 163 -89 212 -115 50 -27 133 -72 185
-101 173 -95 213 -116 216 -112 3 3 -202 117 -476 265 -72 39 -141 77 -202
111 l-58 32 -56 -58z"/>
<path d="M1155 2283 c16 -16 327 -184 332 -180 4 5 -63 43 -242 137 -55 29
-95 48 -90 43z"/>
<path d="M2593 2050 c3 -8 20 -51 37 -94 17 -44 40 -111 50 -150 10 -39 19
-62 19 -50 2 43 -77 273 -102 299 -7 7 -8 5 -4 -5z"/>
<path d="M1215 1886 c-190 -116 -222 -132 -236 -120 -13 12 -41 -9 -220 -162
-112 -97 -250 -216 -306 -265 -55 -49 -106 -89 -111 -89 -9 0 -24 88 -35 200
-4 33 -4 32 -5 -7 -2 -51 17 -185 28 -204 7 -10 25 2 77 47 37 33 167 145 288
249 121 103 230 197 243 209 18 16 26 18 41 9 15 -9 52 9 232 119 196 119 241
149 229 148 -3 0 -104 -61 -225 -134z"/>
<path d="M920 1638 c-30 -28 -167 -148 -305 -266 -137 -118 -252 -221 -253
-229 -9 -35 83 -230 156 -332 60 -84 169 -199 246 -260 79 -61 177 -122 188
-115 4 3 8 166 8 363 0 350 0 359 20 364 19 5 20 14 20 266 0 202 -3 261 -12
261 -7 -1 -38 -24 -68 -52z m70 -213 c0 -248 -1 -255 -20 -255 -20 0 -20 -7
-20 -366 l0 -365 -42 25 c-203 120 -366 297 -473 511 -84 168 -85 156 32 255
54 46 100 87 103 90 3 3 83 73 179 155 96 83 188 162 205 177 17 15 32 27 34
28 1 0 2 -115 2 -255z"/>
<path d="M2600 1547 c-53 -34 -118 -77 -145 -94 -28 -17 -135 -85 -239 -152
-169 -108 -190 -119 -201 -104 -11 15 -24 10 -126 -54 -63 -38 -165 -101 -227
-138 -61 -38 -110 -70 -108 -72 2 -3 102 56 223 130 194 120 220 132 235 120
15 -13 52 8 353 201 185 119 339 216 342 216 3 0 4 -66 1 -147 -2 -82 -1 -130
3 -108 14 70 11 265 -3 265 -7 0 -56 -29 -108 -63z"/>
<path d="M2690 1276 c0 -32 -54 -197 -91 -275 -21 -46 -64 -120 -94 -165 -58
-86 -174 -219 -206 -237 -16 -8 -45 1 -151 51 -72 33 -132 59 -134 57 -5 -5
257 -127 272 -127 17 0 166 159 216 230 61 86 130 226 161 325 29 91 42 155
33 155 -3 0 -6 -6 -6 -14z"/>
<path d="M1030 771 l0 -379 48 -20 c66 -29 195 -60 272 -66 65 -5 65 -5 -15 8
-102 18 -166 34 -235 61 l-55 21 -3 367 c-1 202 0 367 3 367 3 0 29 -12 58
-27 61 -32 87 -44 87 -39 0 4 -148 86 -156 86 -2 0 -4 -170 -4 -379z"/>
<path d="M1200 1056 c0 -3 65 -39 145 -81 129 -68 145 -79 140 -98 -5 -20 13
-30 193 -112 108 -49 249 -113 312 -142 63 -30 137 -64 165 -77 l50 -23 -55
-35 c-128 -82 -279 -139 -440 -168 -58 -10 -90 -19 -72 -19 80 -2 285 55 397
111 96 48 176 100 172 112 -2 6 -164 85 -360 175 -300 138 -356 167 -352 182
7 21 1 26 -164 113 -127 67 -131 69 -131 62z"/>
<path d="M1551 916 c10 -10 443 -205 447 -202 2 3 -16 13 -40 24 -24 11 -123
56 -220 101 -160 73 -200 90 -187 77z"/>
<path d="M1478 293 c23 -2 59 -2 80 0 20 2 1 4 -43 4 -44 0 -61 -2 -37 -4z"/>
</g>
</svg>
